<?xml version="1.0" encoding="utf-8"?>
<!-- Generator: Adobe Illustrator 27.3.1, SVG Export Plug-In . SVG Version: 6.00 Build 0)  -->
<svg version="1.1" id="Layer_2_00000078016845275671952140000002195681187406066094_"
	 xmlns="http://www.w3.org/2000/svg" xmlns:xlink="http://www.w3.org/1999/xlink" x="0px" y="0px" viewBox="0 0 335 251.1"
	 style="enable-background:new 0 0 335 251.1;" xml:space="preserve">
<style type="text/css">
	.st0{fill:#F1F1F1;}
</style>
<g id="Layer_1-2">
	<path class="st0" d="M335,177.9v19c-0.4,2.8-0.8,5.6-1.3,8.3c-2.2,14.1-7.2,26.9-17.7,37c-11.8,11.5-24.5,11.8-36.7,0.8
		c-14.8-13.3-29.8-26.6-44.5-40c-5.5-5-11.8-7.4-19.3-7.4c-31.7,0.1-63.4,0.1-95.2,0c-7.2,0-13.4,2.1-18.7,7.1
		c-5.6,5.2-11.3,10.2-17,15.3c-9.8,8.8-19.6,17.7-29.5,26.4c-9.7,8.5-21.1,8.8-31.3,1.1c-10.7-8-17.1-18.7-20.4-31.4
		c-5.4-20.3-3.4-40.7,0.4-60.9c5.6-29.3,15.6-57.3,27.5-84.6c5.9-13.5,13.1-26.5,16.7-41c1.3-5.2,5-8.8,10.2-10.7
		c13.3-5.1,26.6-10.3,40-15c3.9-1.4,8.3-1.7,12.5-1.4c7,0.4,12.5,4.3,16.5,9.9c2.1,2.9,4.6,3.6,8,3.6c20.9-0.1,41.9-0.2,62.8,0
		c5.1,0.1,8.7-1.2,12.1-5.1c8-9.3,18.1-11,29.3-6.7c12.4,4.7,24.8,9.5,37.2,14.1c6,2.2,9.9,6.1,11.9,12.1c2.4,7.1,4.6,14.3,7.4,21.2
		c5.8,14.3,12.3,28.4,17.9,42.8c9.1,23.8,16.2,48.3,19.6,73.7C333.9,169.9,334.4,173.9,335,177.9L335,177.9z M125.6,97.6
		c0-5.1,0.2-9.6,0-14.2c-0.4-9.9-10-16.3-19-12.7c-6.2,2.5-8.8,7.5-8.9,14c0,4.2,0,8.4,0,12.8c-4.5,0-8.5,0-12.6,0
		c-4.4,0-8.4,1.1-11.5,4.5c-3.8,4.3-4.8,9.3-2.7,14.6c2.2,5.6,6.6,8.6,12.6,8.8c4.6,0.2,9.3,0,14.2,0c0,2.7,0,5,0,7.3
		c0,2.7-0.1,5.5,0.3,8.2c0.9,7.4,6.9,12.6,14,12.4c7.3-0.2,13.3-5.8,13.6-13.3c0.2-4.8,0-9.5,0-14.6c4.8,0,9.2,0,13.7,0
		c4.2,0,7.9-1.5,10.7-4.8c3.8-4.4,4.5-9.4,2.3-14.7c-2.4-5.7-7.1-8.3-13.2-8.5C134.8,97.5,130.4,97.6,125.6,97.6L125.6,97.6z
		 M209.3,97.7c0-7.6-6.4-13.9-13.9-14c-7.6,0-13.9,6.3-14,13.9c0,7.6,6.4,13.9,13.9,14C202.9,111.6,209.3,105.2,209.3,97.7
		L209.3,97.7z M265,97.7c0-7.7-6.2-13.9-13.8-14c-7.6,0-13.9,6.2-13.9,13.9c0,7.7,6.1,13.9,13.8,14C258.7,111.6,265,105.4,265,97.7z
		 M209.4,69.7c0,7.7,6.2,13.9,13.9,13.9s13.9-6.2,13.9-13.9c0-7.7-6.2-13.9-13.8-13.9C215.6,55.8,209.4,62.1,209.4,69.7z
		 M223.4,111.7c-7.7-0.1-14,6.1-14,13.7c-0.1,7.7,6.1,13.9,13.8,14c7.8,0.1,13.9-6,14-13.7C237.2,118,231.1,111.7,223.4,111.7z"/>
</g>
</svg>
