<?xml version="1.0" encoding="UTF-8"?>
<svg id="Layer_2" data-name="Layer 2" xmlns="http://www.w3.org/2000/svg" viewBox="0 0 334.95 251.06">
  <defs>
    <style>
      .cls-1 {
        fill: #0057d9;
      }
    </style>
  </defs>
  <g id="Layer_1-2" data-name="Layer 1">
    <path class="cls-1" d="m334.95,177.88v18.97c-.42,2.78-.83,5.56-1.27,8.34-2.19,14.11-7.17,26.85-17.67,37.03-11.84,11.49-24.47,11.81-36.74.79-14.84-13.32-29.75-26.58-44.52-39.98-5.53-5.02-11.81-7.43-19.28-7.42-31.72.08-63.44.07-95.15,0-7.2-.01-13.42,2.14-18.74,7.07-5.6,5.18-11.35,10.2-17.03,15.3-9.82,8.8-19.57,17.69-29.48,26.39-9.67,8.49-21.09,8.76-31.32,1.15-10.71-7.96-17.06-18.72-20.44-31.4-5.43-20.33-3.42-40.67.43-60.91,5.57-29.34,15.56-57.27,27.45-84.59,5.89-13.53,13.06-26.53,16.69-41.01,1.31-5.24,5.04-8.8,10.17-10.74,13.33-5.05,26.58-10.32,40.03-15.03,3.86-1.35,8.33-1.67,12.46-1.42,7.04.42,12.5,4.33,16.53,9.95,2.1,2.93,4.59,3.64,8.03,3.62,20.93-.14,41.86-.23,62.78.04,5.07.07,8.71-1.16,12.09-5.1,7.98-9.28,18.06-10.99,29.32-6.74,12.42,4.69,24.78,9.53,37.24,14.1,5.97,2.19,9.89,6.09,11.92,12.06,2.41,7.09,4.61,14.27,7.41,21.2,5.8,14.32,12.33,28.35,17.85,42.76,9.13,23.83,16.21,48.27,19.64,73.66.54,3.96,1.06,7.93,1.6,11.89ZM125.63,97.6c0-5.05.15-9.62-.03-14.17-.38-9.86-10.01-16.3-19-12.65-6.15,2.5-8.8,7.48-8.87,13.96-.04,4.2,0,8.41,0,12.85-4.52,0-8.54,0-12.55,0-4.42.01-8.45,1.13-11.5,4.52-3.84,4.27-4.84,9.28-2.74,14.58,2.21,5.58,6.63,8.56,12.63,8.79,4.64.18,9.3.04,14.16.04,0,2.73-.03,5.01,0,7.28.04,2.72-.06,5.46.26,8.16.86,7.36,6.88,12.64,13.98,12.44,7.34-.21,13.27-5.84,13.61-13.26.22-4.75.04-9.53.04-14.6,4.8,0,9.24.02,13.68,0,4.25-.03,7.9-1.52,10.7-4.76,3.77-4.37,4.54-9.42,2.34-14.65-2.4-5.71-7.14-8.32-13.2-8.5-4.34-.13-8.69-.02-13.49-.02Zm83.68.07c.01-7.56-6.35-13.94-13.92-13.96-7.56-.02-13.95,6.34-13.98,13.91-.03,7.55,6.35,13.94,13.92,13.97,7.55.03,13.96-6.36,13.98-13.91Zm55.7.04c.02-7.67-6.18-13.95-13.81-13.99-7.62-.04-13.89,6.2-13.93,13.87-.04,7.68,6.15,13.95,13.8,13.99,7.62.04,13.91-6.22,13.94-13.87Zm-55.66-27.99c0,7.65,6.23,13.93,13.86,13.95,7.63.02,13.88-6.22,13.9-13.89.02-7.67-6.19-13.92-13.84-13.94-7.63-.02-13.91,6.25-13.92,13.88Zm14.01,41.96c-7.7-.05-13.96,6.07-14.01,13.73-.06,7.69,6.08,13.92,13.76,13.98,7.75.06,13.91-5.99,13.99-13.73.08-7.71-6.03-13.93-13.74-13.98Z"/>
  </g>
</svg>