<?xml version="1.0" encoding="UTF-8"?><svg id="Layer_1" xmlns="http://www.w3.org/2000/svg" viewBox="0 0 215 215"><rect x="4.26" y="4.96" width="205.08" height="205.08" rx="59.91" ry="59.91" style="fill:none; stroke:#231f20; stroke-miterlimit:10; stroke-width:11px;"/><path d="m95.86,64.99h3.46c29.16,0,58.33.02,87.49-.05,1.7,0,2.59.54,3.29,2.01,3.33,7,5.77,14.27,7.45,21.86,2.02,9.1,2.05,18.29,1.27,27.41-.54,6.26-2.18,12.52-4.03,18.56-3.62,11.8-9.83,22.25-18.05,31.47-7.74,8.68-16.8,15.63-27.23,20.82-7.21,3.59-14.75,6.25-22.62,7.69-8.54,1.56-17.17,2.15-25.91,1.18-10.01-1.11-19.61-3.54-28.72-7.77-14.33-6.65-26.12-16.45-35.36-29.29-5.64-7.84-9.94-16.38-12.7-25.63-1.39-4.68-2.31-9.5-3.54-14.63,4.71,0,8.94-.05,13.16.08.45.01,1.12,1.09,1.25,1.76,1.39,7.45,3.78,14.53,7.32,21.23,7.73,14.63,18.93,25.7,33.75,33.1,11.04,5.51,22.73,8.26,35.03,7.96,16.39-.39,31.24-5.53,44.37-15.45,10.96-8.29,19.11-18.82,24.38-31.47,3.06-7.34,4.84-15,5.47-23.02.83-10.42-.54-20.46-3.58-30.35-.04-.13-.09-.26-.15-.38-1.77-4.24-.86-3.56-5.02-3.58-8.51-.05-17.02-.02-25.53-.01-2.74,0-2.75.01-2.75,2.7,0,24.52,0,49.03,0,73.55q0,2.69-2.69,2.69c-2.81,0-5.63-.12-8.44.05-1.99.12-2.41-.67-2.4-2.49.06-14.49.04-28.98.04-43.47,0-10.1,0-20.19,0-30.29,0-2.72-.02-2.73-2.77-2.73-7.41-.01-14.82-.04-22.23.01-1.48.01-2.37-.4-3.07-1.79-2.4-4.74-5.94-8.51-10.95-11.72Z" style="fill:#231f20;"/><path d="m43.76,77.64c2.27-3.89,4.49-7.8,6.84-11.64.31-.5,1.24-.87,1.89-.88,10.02-.06,20.04-.23,30.06.01,10.14.25,19.7,8.12,22.29,17.28,3.4,11.99-1.95,23.12-10.67,28.48-4.09,2.52-8.51,3.7-13.27,3.7-1.21,0-2.42,0-3.63,0-.11.18-.22.36-.33.54,5.19,6.92,10.37,13.86,15.58,20.77,5.19,6.88,10.43,13.74,15.87,20.9-.82.12-1.31.26-1.8.26-4.32.02-8.65-.06-12.97.04-1.55.04-2.56-.48-3.46-1.69-7.21-9.59-14.47-19.15-21.7-28.73-2.68-3.55-5.39-7.09-7.99-10.71-.79-1.1-1.66-1.41-2.93-1.41-11.46.03-22.92-.02-34.38.06-1.91.01-2.61-.47-2.68-2.5-.28-8.89.09-17.72,2.24-26.36,2.38-9.56,6.1-18.61,11.43-26.94,7.43-11.62,17.01-21.08,28.73-28.37,9.47-5.9,19.74-9.87,30.66-11.85,9.81-1.78,19.75-1.95,29.67-.37,23.93,3.8,43.17,15.48,57.99,34.56,1.91,2.46,3.55,5.14,5.64,8.2-3.31,0-6.04-.26-8.71.06-5.08.6-8.6-.94-12.02-5.12-6.89-8.43-15.79-14.57-25.83-18.9-11.85-5.11-24.2-7.37-37.08-6.11-20.58,2-37.68,10.81-51.21,26.5-10.3,11.94-16,25.86-17.94,41.43-.21,1.68.35,2.39,2.1,2.38,14.62-.04,29.24-.01,43.85-.04,3.75,0,7.24-.78,9.75-3.92,3.07-3.84,3.76-8.11,1.57-12.5-2.19-4.41-6.16-6.33-10.96-6.36-11.25-.07-22.51-.02-33.77-.02-.79,0-1.58,0-2.37,0l-.48-.73Z" style="fill:#375fac;"/></svg>