<?xml version="1.0" encoding="UTF-8"?><svg id="Layer_1" xmlns="http://www.w3.org/2000/svg" viewBox="0 0 72 72"><g id="g8"><polygon id="polygon4" points="35.5 2.12 35.5 53.69 1.12 70.88 35.5 2.12" style="fill:#375fac;"/><path id="path6" d="m35,4.24v49.15L2.24,69.76,35,4.24m1-4.24L0,72l36-18V0h0Z" style="fill:#4e005b;"/></g><path id="rect4" d="m35.18,24.02h3.63c6.87,0,12.43,6.14,12.43,13.71h0c0,7.57-5.57,13.71-12.43,13.71h-3.63c-6.87,0-12.43-6.14-12.43-13.71h0c0-7.57,5.57-13.71,12.43-13.71Z" style="fill:#375fac;"/><polygon id="polygon10" points="36.5 53.69 36.5 2.12 70.88 70.88 36.5 53.69" style="fill:#375fac;"/><path id="path6-4" d="m40.48,11.73l-4.48-9.96-5.43,12.54c-2.38,5.49-3.98,6.04-6.03,11.99l-6.69,19.44c-1.94,5.63,6.12,7.71,12.26,7.7l14.25-.03c6.14-.01,15.91-3.46,13.1-8.72l-6.7-12.53c-2.82-5.19-9.25-14.51-10.27-20.42Zm4.2,36.99l-2.05-1.98c-1.53.89-3.33,1.39-5.24,1.39h0c-5.32,0-9.72-3.91-10.26-8.93h4.46c.54,2.84,3.23,4.93,6.39,4.63.46-.04.92-.15,1.34-.3l-2.09-2.02,3.14-3.04,2.28,2.19c.31-.61.52-1.28.59-1.98.31-3.06-1.88-5.67-4.8-6.17v-4.32c5.19.52,9.24,4.76,9.24,9.93h0c0,2.09-.67,4.06-1.82,5.65l1.95,1.89-3.14,3.06Z" style="fill:#375fac;"/><path id="path3789" d="m53.93,62.91l-17.87-8.93v-.57h.99l16.32,8.16c8.98,4.49,16.32,8.14,16.32,8.12s-2.62-5.29-5.83-11.7c-3.8-7.59-5.87-11.83-5.95-12.14-.15-.58-.27-.82-1.43-2.85-1.42-2.49-6.05-12.21-6.6-13.22-.95-1.75-1.52-2.9-2.88-5.7-.81-1.66-1.74-3.3-4.97-9.76-2.22-4.45-4.47-9.06-5-10.24l-.97-2.16v-.82s0-.82,0-.82l17.89,35.76c9.84,19.67,17.88,35.77,17.86,35.78-.01.01-8.06-4-17.89-8.91h0Z" style="fill:#f9f9f9;"/><path id="path3791" d="m.15,71.8s8.07-16.17,17.92-35.87L35.98.13v.83s0,.83,0,.83l-.7,1.61c-.42.97-7.14,14.49-16.86,33.94C9.54,55.12,2.28,69.68,2.3,69.7c.02.02,7.38-3.64,16.36-8.13l16.33-8.17h.99v.57l-17.89,8.94C8.27,67.84.2,71.86.18,71.86s-.04-.03-.03-.06Z" style="fill:#f9f9f9;"/><path d="m33.2,31.77h.45c3.76,0,7.52,0,11.29,0,.22,0,.33.07.42.26.43.9.74,1.84.96,2.82.26,1.17.26,2.36.16,3.54-.07.81-.28,1.62-.52,2.39-.47,1.52-1.27,2.87-2.33,4.06-1,1.12-2.17,2.02-3.51,2.69-.93.46-1.9.81-2.92.99-1.1.2-2.21.28-3.34.15-1.29-.14-2.53-.46-3.7-1-1.85-.86-3.37-2.12-4.56-3.78-.73-1.01-1.28-2.11-1.64-3.31-.18-.6-.3-1.23-.46-1.89.61,0,1.15,0,1.7.01.06,0,.14.14.16.23.18.96.49,1.87.94,2.74,1,1.89,2.44,3.31,4.35,4.27,1.42.71,2.93,1.07,4.52,1.03,2.11-.05,4.03-.71,5.72-1.99,1.41-1.07,2.46-2.43,3.14-4.06.39-.95.62-1.94.71-2.97.11-1.34-.07-2.64-.46-3.92,0-.02-.01-.03-.02-.05-.23-.55-.11-.46-.65-.46-1.1,0-2.2,0-3.29,0-.35,0-.35,0-.35.35,0,3.16,0,6.32,0,9.49q0,.35-.35.35c-.36,0-.73-.02-1.09,0-.26.02-.31-.09-.31-.32,0-1.87,0-3.74,0-5.61,0-1.3,0-2.6,0-3.91,0-.35,0-.35-.36-.35-.96,0-1.91,0-2.87,0-.19,0-.31-.05-.4-.23-.31-.61-.77-1.1-1.41-1.51Z" style="fill:#fff;"/><path d="m26.48,33.4c.29-.5.58-1.01.88-1.5.04-.06.16-.11.24-.11,1.29,0,2.59-.03,3.88,0,1.31.03,2.54,1.05,2.88,2.23.44,1.55-.25,2.98-1.38,3.67-.53.32-1.1.48-1.71.48-.16,0-.31,0-.47,0-.01.02-.03.05-.04.07.67.89,1.34,1.79,2.01,2.68.67.89,1.35,1.77,2.05,2.7-.11.02-.17.03-.23.03-.56,0-1.12,0-1.67,0-.2,0-.33-.06-.45-.22-.93-1.24-1.87-2.47-2.8-3.71-.35-.46-.7-.91-1.03-1.38-.1-.14-.21-.18-.38-.18-1.48,0-2.96,0-4.44,0-.25,0-.34-.06-.35-.32-.04-1.15.01-2.29.29-3.4.31-1.23.79-2.4,1.47-3.47.96-1.5,2.19-2.72,3.71-3.66,1.22-.76,2.55-1.27,3.95-1.53,1.27-.23,2.55-.25,3.83-.05,3.09.49,5.57,2,7.48,4.46.25.32.46.66.73,1.06-.43,0-.78-.03-1.12,0-.66.08-1.11-.12-1.55-.66-.89-1.09-2.04-1.88-3.33-2.44-1.53-.66-3.12-.95-4.78-.79-2.65.26-4.86,1.39-6.61,3.42-1.33,1.54-2.06,3.34-2.31,5.34-.03.22.05.31.27.31,1.89,0,3.77,0,5.66,0,.48,0,.93-.1,1.26-.51.4-.5.48-1.05.2-1.61-.28-.57-.79-.82-1.41-.82-1.45,0-2.9,0-4.36,0-.1,0-.2,0-.31,0l-.06-.09Z" style="fill:#64bb46;"/></svg>