<?xml version="1.0" encoding="UTF-8"?><svg id="Layer_1" xmlns="http://www.w3.org/2000/svg" viewBox="0 0 72 72"><rect x="3.35" y="3.35" width="65.3" height="65.3" rx="10.12" ry="10.12" style="fill:#365fab;"/><path d="m31.53,22.65h1.11c9.32,0,18.63,0,27.95-.01.54,0,.83.17,1.05.64,1.06,2.24,1.84,4.56,2.38,6.98.64,2.91.66,5.84.41,8.75-.17,2-.7,4-1.29,5.93-1.16,3.77-3.14,7.11-5.77,10.05-2.47,2.77-5.37,4.99-8.7,6.65-2.3,1.15-4.71,2-7.23,2.45-2.73.5-5.48.69-8.28.38-3.2-.35-6.26-1.13-9.17-2.48-4.58-2.13-8.34-5.25-11.29-9.36-1.8-2.5-3.17-5.23-4.06-8.19-.45-1.49-.74-3.03-1.13-4.67,1.5,0,2.86-.02,4.2.03.14,0,.36.35.4.56.44,2.38,1.21,4.64,2.34,6.78,2.47,4.67,6.05,8.21,10.78,10.57,3.53,1.76,7.26,2.64,11.19,2.54,5.24-.13,9.98-1.77,14.17-4.94,3.5-2.65,6.1-6.01,7.79-10.05.98-2.34,1.55-4.79,1.75-7.35.26-3.33-.17-6.53-1.14-9.7-.01-.04-.03-.08-.05-.12-.57-1.35-.27-1.14-1.6-1.14-2.72-.01-5.44,0-8.15,0-.88,0-.88,0-.88.86,0,7.83,0,15.66,0,23.49q0,.86-.86.86c-.9,0-1.8-.04-2.7.02-.64.04-.77-.22-.77-.8.02-4.63.01-9.26.01-13.89,0-3.22,0-6.45,0-9.67,0-.87,0-.87-.88-.87-2.37,0-4.73-.01-7.1,0-.47,0-.76-.13-.98-.57-.77-1.52-1.9-2.72-3.5-3.74Z" style="fill:#fff;"/><path d="m14.89,26.69c.72-1.24,1.44-2.49,2.19-3.72.1-.16.4-.28.6-.28,3.2-.02,6.4-.07,9.6,0,3.24.08,6.29,2.59,7.12,5.52,1.09,3.83-.62,7.38-3.41,9.1-1.31.8-2.72,1.18-4.24,1.18-.39,0-.77,0-1.16,0-.04.06-.07.11-.11.17,1.66,2.21,3.31,4.43,4.98,6.63,1.66,2.2,3.33,4.39,5.07,6.68-.26.04-.42.08-.57.08-1.38,0-2.76-.02-4.14.01-.49.01-.82-.15-1.11-.54-2.3-3.06-4.62-6.12-6.93-9.18-.86-1.14-1.72-2.27-2.55-3.42-.25-.35-.53-.45-.94-.45-3.66.01-7.32,0-10.98.02-.61,0-.83-.15-.86-.8-.09-2.84.03-5.66.72-8.42.76-3.05,1.95-5.94,3.65-8.6,2.37-3.71,5.43-6.73,9.18-9.06,3.03-1.88,6.31-3.15,9.79-3.78,3.13-.57,6.31-.62,9.48-.12,7.64,1.21,13.79,4.95,18.52,11.04.61.79,1.13,1.64,1.8,2.62-1.06,0-1.93-.08-2.78.02-1.62.19-2.75-.3-3.84-1.64-2.2-2.69-5.04-4.65-8.25-6.04-3.78-1.63-7.73-2.35-11.84-1.95-6.57.64-12.04,3.45-16.36,8.46-3.29,3.81-5.11,8.26-5.73,13.23-.07.54.11.76.67.76,4.67-.01,9.34,0,14.01-.01,1.2,0,2.31-.25,3.11-1.25.98-1.23,1.2-2.59.5-3.99-.7-1.41-1.97-2.02-3.5-2.03-3.6-.02-7.19,0-10.79,0-.25,0-.51,0-.76,0l-.15-.23Z" style="fill:#64bb46;"/></svg>